<svg width="132" height="223" viewBox="0 0 132 223" fill="none" xmlns="http://www.w3.org/2000/svg">
<path d="M86.0806 124.92C93.2612 109.977 100.064 92.6392 101.931 75.9936C103.707 60.2038 99.4562 48.7003 91.1349 44.0806C83.5623 39.873 74.1603 40.4592 65.1457 42.4346C55.0685 44.6444 44.4759 48.9489 34.3225 56.2436C27.137 61.4257 19.3387 68.4839 15.165 80.0807C11.5102 90.2057 11.7205 100.621 13.0448 109.358C14.6506 120.013 17.9579 129.272 21.6837 137.698C25.1575 145.629 29.0463 153.669 33.8428 159.633C40.0122 167.309 48.6521 169.997 58.3131 163.237C69.4435 155.45 77.7334 140.113 86.0828 125.886C87.2034 123.972 85.9594 121.735 84.8214 123.665C77.7319 135.758 70.8529 148.7 61.8038 156.973C54.0053 164.117 46.147 165.453 39.8915 160.821C34.2059 156.575 30.2303 148.619 26.4896 141.09C22.858 133.74 19.5747 125.795 17.2412 116.9C15.1181 108.854 13.4735 99.3465 15.0518 89.0167C16.6947 78.3394 22.0907 70.1968 28.4186 64.4237C37.1666 56.415 46.6992 51.6591 55.6834 48.5174C64.9854 45.2665 74.4666 43.5215 82.9892 45.127C92.4807 46.9024 100.497 54.466 100.061 71.1461C99.6177 88.4032 91.8842 107.812 84.3663 123.481C83.3603 125.596 85.0689 127.013 86.0806 124.92Z" fill="#D3CBCF"/>
<path d="M87.8181 141.287C89.9184 137.564 92.3996 133.985 95.2435 132.393C97.595 131.079 99.8307 131.389 101.758 132.37C106.258 134.675 109.591 139.852 113.235 143.93C115.123 146.061 117.11 148.068 119.534 149.052C119.787 147.893 120.034 146.712 120.281 145.531C109.246 145.693 94.3933 153.015 88.6097 138.208C87.9684 136.577 86.0681 139.364 86.692 141.012C92.8079 156.638 108.181 149.238 119.8 149.079C121.112 149.059 121.597 145.964 120.564 145.541C115.924 143.629 112.638 137.948 108.994 133.957C105.471 130.105 101.058 126.147 95.5687 128.825C92.1407 130.5 89.0621 134.631 86.5373 139.08C85.4435 141.026 86.6895 143.268 87.8181 141.287Z" fill="#D3CBCF"/>
<path d="M88.2417 139.273C93.6545 147.919 97.4318 160.418 94.2842 175.461C94.9728 174.807 95.6614 174.152 96.35 173.498C92.457 170.769 90.0968 164.812 88.7685 158.527C87.4402 152.242 86.9483 144.385 89.1622 136.721C89.8661 134.25 87.6256 133.647 86.9217 136.117C84.471 144.628 84.8664 153.228 86.2763 160.305C87.6927 167.314 90.3639 174.032 94.7022 177.021C95.5038 177.564 96.454 176.536 96.7681 175.057C100.121 159.043 96.1095 145.431 90.3663 136.229C89.4006 134.755 87.2951 137.781 88.2417 139.273Z" fill="#D3CBCF"/>
<path d="M87.233 137.073C93.5377 117.59 108.567 106.337 119.263 111.765C119.22 110.878 119.176 109.99 119.155 109.109C116.75 112.769 114.536 116.7 112.125 120.338C109.852 123.795 107.249 127.481 104.325 128.711C102.929 129.305 103.059 132.364 104.444 131.807C110.682 129.194 115.756 118.207 120.375 111.173C121.076 110.091 120.945 108.862 120.267 108.518C108.546 102.592 92.1587 115.463 85.3278 136.553C84.637 138.632 86.5641 139.158 87.233 137.073Z" fill="#D3CBCF"/>
<path d="M92.0933 79.444C90.699 78.0009 88.7845 78.0336 86.9513 77.9588C86.6911 77.9547 86.3023 78.3038 86.0813 78.6326C85.8603 78.9614 85.6444 79.4852 85.6023 79.9257C85.5485 80.4062 85.5757 80.865 85.7713 81.1317C85.9553 81.4383 86.1864 81.4992 86.4872 81.4925C86.4236 81.4973 86.1807 81.4762 86.4872 81.4925C86.5508 81.4878 86.6202 81.5061 86.6838 81.5014C86.7937 81.5088 86.9209 81.4994 87.0308 81.5069C87.2505 81.5218 87.4877 81.5198 87.7131 81.5578C88.112 81.5985 88.5109 81.6392 88.8981 81.7198C89.0773 81.7455 89.2448 81.8112 89.4123 81.8769C89.4873 81.9182 89.5798 81.9426 89.6548 81.9839C89.7011 81.9961 89.7473 82.0083 89.7761 82.0374C89.9493 82.1261 89.5279 81.9074 89.7011 81.9961C90.03 82.1904 90.3241 82.4185 90.6065 82.6865C91.0156 83.117 91.8619 82.609 92.2295 81.7381C92.6087 80.8273 92.5486 79.8867 92.0933 79.444Z" fill="#D3CBCF"/>
<path d="M82.2281 111.298C81.1722 111.259 80.1933 110.914 79.2556 110.472C79.2032 110.436 79.1566 110.424 79.1042 110.388C79.2323 110.466 79.1799 110.43 79.0809 110.382C78.9586 110.328 78.8539 110.257 78.7315 110.203C78.5045 110.079 78.2716 109.93 78.0621 109.788C77.5965 109.492 77.1251 109.172 76.6537 108.853C76.1824 108.533 75.4286 108.834 75.0165 109.811C74.6398 110.668 74.6004 111.83 75.1242 112.185C77.004 113.44 78.9243 114.771 81.1935 114.869C81.5027 114.886 81.7537 114.843 82.07 114.536C82.3335 114.279 82.6271 113.792 82.7395 113.366C82.9587 112.489 82.8231 111.324 82.2281 111.298Z" fill="#D3CBCF"/>
<path d="M66.2791 146.434C66.0521 146.482 65.8251 146.531 65.5981 146.579C65.4934 146.595 65.3887 146.611 65.2782 146.603C65.2142 146.608 65.1677 146.596 65.1037 146.6C65.063 146.611 64.8828 146.585 65.0805 146.594C65.2782 146.603 65.098 146.577 65.0572 146.588C64.9933 146.593 64.9468 146.581 64.8828 146.585C64.7723 146.578 64.6561 146.547 64.5456 146.54C64.3422 146.508 64.1506 146.436 63.9589 146.364C63.8602 146.316 63.7673 146.292 63.6686 146.244C63.5177 146.161 63.6686 146.244 63.7383 146.262C63.6861 146.227 63.6396 146.215 63.5874 146.179C63.4075 146.067 63.2219 145.931 63.0363 145.796C62.8507 145.661 62.6769 145.485 62.5088 145.332C62.4162 145.221 62.3293 145.134 62.2367 145.023C62.173 144.941 62.0807 144.743 62.2424 145.046C62.202 144.97 62.1498 144.935 62.1093 144.859C61.9126 144.591 61.698 144.426 61.3895 144.496C61.1161 144.533 60.7487 144.804 60.5146 145.175C60.0641 145.9 59.7861 147.147 60.1853 147.707C60.955 148.71 61.8187 149.479 62.8581 149.904C63.7523 150.27 64.7584 150.297 65.7771 150.024C66.3709 149.877 67.037 149.057 67.1571 148.05C67.2536 147.124 66.9136 146.277 66.2791 146.434Z" fill="#D3CBCF"/>
<path d="M74.9964 86.2318C73.3339 85.5793 71.6083 84.9314 69.6548 85.4384C69.0688 85.582 68.4115 86.3889 68.2932 87.3809C68.1925 88.271 68.5339 89.1287 69.1602 88.9744C69.6199 88.8401 70.062 88.8077 70.5098 88.7981C70.55 88.7874 70.5959 88.7995 70.6418 88.8117C70.3489 88.8409 70.5327 88.8042 70.5959 88.7995C70.7049 88.807 70.814 88.8145 70.923 88.822C71.1411 88.837 71.3476 88.8916 71.5484 88.9234C72.3858 89.102 73.1712 89.4162 73.9565 89.7303C74.4609 89.9489 75.2501 89.1555 75.4772 88.2562C75.762 87.2442 75.5466 86.4625 74.9964 86.2318Z" fill="#D3CBCF"/>
<path d="M64.0144 114.94C62.3776 114.874 60.8703 114.196 59.3801 113.588C58.8544 113.385 58.0764 114.169 57.8474 115.077C57.5776 116.081 57.8003 116.893 58.349 117.102C59.8336 117.687 61.3409 118.365 62.9834 118.454C63.2899 118.47 63.5388 118.428 63.8523 118.123C64.1136 117.87 64.4046 117.387 64.516 116.965C64.6392 116.503 64.6873 115.999 64.5787 115.648C64.4932 115.302 64.2978 114.95 64.0144 114.94Z" fill="#D3CBCF"/>
<path d="M67.3704 60.9327C64.5013 60.8096 61.7541 60.1461 58.885 60.023C58.3249 60.002 57.6316 60.476 57.3709 61.4886C57.1337 62.3377 57.267 63.4758 57.8672 63.4862C60.7363 63.6093 63.4835 64.2727 66.3526 64.3958C66.9127 64.4168 67.606 63.9429 67.8666 62.9303C68.0867 62.0978 67.9534 60.9597 67.3704 60.9327Z" fill="#D3CBCF"/>
<path d="M56.1259 90.2809C54.6356 90.2416 53.0588 90.7035 51.5686 90.6642C51.3136 90.6594 50.9328 90.9987 50.7165 91.3187C50.5002 91.6387 50.2889 92.1489 50.248 92.5784C50.1955 93.0469 50.2225 93.4945 50.4143 93.7552C50.5948 94.0548 50.8212 94.1149 51.1159 94.1093C52.6062 94.1487 54.183 93.6867 55.6733 93.7261C55.9283 93.7309 56.309 93.3916 56.5253 93.0716C56.7417 92.7515 56.9529 92.2414 56.9939 91.8118C57.0463 91.3434 57.0194 90.8958 56.8275 90.6351C56.63 90.3519 56.4206 90.2753 56.1259 90.2809Z" fill="#D3CBCF"/>
<path d="M47.6225 128.613C45.7425 127.348 43.7373 126.381 41.9825 124.819C41.5291 124.413 40.7179 124.882 40.3245 125.79C39.9191 126.74 39.9329 127.777 40.4335 128.195C42.2061 129.74 44.1935 130.725 46.0734 131.99C46.5508 132.313 47.3141 132.008 47.7315 131.018C48.0893 130.144 48.1292 128.967 47.6225 128.613Z" fill="#D3CBCF"/>
<path d="M47.2001 72.058C45.2334 71.9852 43.4235 71.3364 41.4512 71.2409C41.1473 71.2244 40.9006 71.2656 40.5898 71.5668C40.3309 71.8177 40.0425 72.295 39.9321 72.713C39.694 73.5656 39.8277 74.7081 40.4297 74.7182C42.3965 74.791 44.2063 75.4398 46.1787 75.5354C46.4826 75.5518 46.7293 75.5106 47.04 75.2095C47.2989 74.9586 47.5873 74.4812 47.6978 74.0633C47.9186 73.2274 47.785 72.0849 47.2001 72.058Z" fill="#D3CBCF"/>
<path d="M40.8469 103.54C39.0147 102.797 37.1764 102.119 35.2796 101.554C34.7459 101.413 33.9826 102.098 33.7409 103.05C33.4818 104.018 33.6817 104.914 34.2443 105.084C36.1354 105.625 37.9794 106.327 39.8117 107.069C40.3394 107.273 41.1205 106.485 41.3503 105.574C41.6212 104.565 41.3978 103.75 40.8469 103.54Z" fill="#D3CBCF"/>
<path d="M29.3898 75.0518C27.751 74.4034 26.1354 73.7612 24.5141 73.0959C23.9853 72.8916 23.2024 73.6816 22.972 74.5956C22.7005 75.607 22.9244 76.424 23.4765 76.6344C25.0978 77.2998 26.7309 77.925 28.3522 78.5903C28.8811 78.7946 29.6639 78.0046 29.8943 77.0906C30.1716 76.1024 29.9477 75.2854 29.3898 75.0518Z" fill="#D3CBCF"/>
<path d="M35.2591 56.992C34.7993 57.1264 34.3572 57.1588 33.9093 57.1683C33.8691 57.179 33.8232 57.1669 33.7773 57.1548C34.0702 57.1256 33.8864 57.1623 33.8232 57.1669C33.7142 57.1594 33.6051 57.1519 33.496 57.1444C33.2779 57.1294 33.0714 57.0748 32.8706 57.0431C32.033 56.8644 31.2476 56.5502 30.4621 56.2361C29.9404 56.0342 29.1684 56.811 28.9413 57.7104C28.6737 58.7058 28.8948 59.5105 29.4394 59.7184C31.1021 60.371 32.8279 61.0189 34.7817 60.5118C35.3678 60.3682 36.0251 59.5611 36.1434 58.5689C36.2212 57.6727 35.8798 56.8149 35.2591 56.992Z" fill="#D3CBCF"/>
<path d="M28.528 102.599C27.9312 102.572 27.3524 102.442 26.8211 102.149C26.897 102.191 26.9905 102.216 27.0722 102.281C26.4182 101.934 25.8292 101.409 25.2873 100.809C25.1067 100.609 24.738 100.621 24.4683 100.768C24.181 100.932 23.8401 101.321 23.6572 101.73C23.48 102.163 23.3377 102.648 23.3594 103.09C23.3869 103.554 23.5262 103.852 23.7418 104.105C24.8082 105.236 26.0221 106.078 27.4788 106.135C27.7889 106.151 28.0407 106.108 28.3578 105.8C28.6221 105.543 28.9165 105.054 29.0293 104.626C29.154 104.158 29.2027 103.648 29.0929 103.292C29.0122 102.966 28.8146 102.609 28.528 102.599Z" fill="#D3CBCF"/>
<path d="M53.9269 153.577C52.0952 152.835 50.3868 151.715 48.3612 151.592C48.0535 151.576 47.8037 151.618 47.4891 151.924C47.2269 152.179 46.9348 152.663 46.823 153.087C46.5817 153.952 46.7167 155.111 47.3262 155.12C49.3636 155.204 51.0603 156.364 52.892 157.106C53.4021 157.327 54.2004 156.522 54.4302 155.61C54.7185 154.585 54.4834 153.81 53.9269 153.577Z" fill="#D3CBCF"/>
<path d="M81.9746 57.5608C80.7262 56.7144 79.2968 56.1867 77.7847 56.1113C77.4777 56.095 77.2284 56.137 76.9143 56.4422C76.6526 56.6965 76.3611 57.18 76.2494 57.6032C76.126 58.0664 76.0778 58.5709 76.1866 58.9229C76.2897 59.2518 76.4854 59.6052 76.7518 59.6323C77.9337 59.6853 79.0392 60.0414 80.0628 60.5914C79.9876 60.5501 79.895 60.5257 79.8141 60.4612C80.0339 60.5623 80.2363 60.6803 80.4444 60.8214C80.6813 60.9916 80.9478 61.0187 81.2555 60.8628C81.54 60.7007 81.8775 60.3155 82.0587 59.9107C82.4327 59.0609 82.4717 57.9074 81.9746 57.5608Z" fill="#D3CBCF"/>
<path d="M88.7356 137.252C92.0788 138.026 95.4802 138.687 98.6712 139.98C99.1963 140.183 99.9505 139.394 100.202 138.493C100.495 137.496 100.226 136.673 99.7012 136.47C96.4927 135.194 93.1144 134.539 89.7482 133.759C89.1996 133.635 88.498 134.288 88.2171 135.245C87.9536 136.186 88.1696 137.145 88.7356 137.252Z" fill="#D3CBCF"/>
</svg>
