<svg width="149" height="257" viewBox="0 0 149 257" fill="none" xmlns="http://www.w3.org/2000/svg">
<path d="M125.379 152.691C119.115 148.81 111.334 141.993 111.143 128.776C111.022 119.807 113.92 111.618 115.272 103.243C117.871 87.1317 114.161 69.3071 108.069 56.4989C101.816 43.337 92.7415 33.9173 83.1263 30.8956C78.4037 29.3988 73.5365 29.5016 68.9372 31.5022C64.3191 33.5033 59.9205 37.3545 55.8591 41.5058C46.8226 50.7782 38.8337 63.3106 32.4269 77.6716C26.1356 91.7851 21.0926 108.241 19.3229 126.137C18.5134 134.399 18.3918 143.065 19.3242 151.425C20.4529 161.473 23.3856 170.786 27.191 178.659C34.9807 194.758 46.4939 205.69 58.0965 210.577C69.6697 215.417 81.4775 210.562 89.705 196.085C94.0028 188.524 96.8319 179.164 99.5752 169.757C100.969 164.996 102.626 159.919 105.758 158.236C108.844 156.57 112.052 158.37 114.942 160.585C117.429 162.519 119.798 164.912 122.284 166.813C122.726 167.159 123.143 166.936 123.406 166.244C124.57 163.069 125.969 160.213 126.679 156.579C127.007 154.844 125.381 154.156 125.052 155.891C124.41 159.231 122.998 161.941 121.931 164.869C122.311 164.679 122.672 164.49 123.053 164.3C118.416 160.765 113.808 154.853 108.596 154.737C102.115 154.608 99.5261 163.457 97.0094 172.206C94.3198 181.513 91.0747 190.445 86.4945 197.298C82.122 203.835 76.6711 208.058 70.8642 209.212C58.9703 211.595 46.1316 202.394 36.5622 189.992C31.6701 183.647 27.3216 175.855 24.3343 166.608C21.5419 157.958 20.3074 148.515 20.3336 138.761C20.3731 120.848 24.3919 103.72 29.8307 89.0281C35.5327 73.6446 43.0826 60.18 51.6901 49.6494C59.3971 40.2349 68.3322 32.0727 78.1575 32.7925C87.9452 33.5134 97.5499 41.6808 104.481 53.8632C111.206 65.7093 115.992 83.39 113.987 99.9081C112.967 108.355 110.305 115.936 109.6 124.553C108.84 133.953 111.507 142.493 116.009 147.985C118.751 151.328 121.858 153.554 124.984 155.47C126.055 156.124 126.392 153.314 125.379 152.691Z" fill="#D1D1D1"/>
<path d="M119.47 152.906C115.946 150.069 112.277 147.735 108.897 144.361C107.25 142.729 105.688 140.805 104.339 138.455C102.832 135.787 101.811 132.525 100.782 129.279C97.5678 118.996 95.8043 107.592 92.2079 97.6431C85.4897 79.1023 73.1059 67.365 60.8292 65.0452C53.9745 63.752 47.0719 65.4927 40.952 70.6636C40.0049 71.4642 40.9005 73.9073 41.8387 73.1231C52.9044 63.7979 66.4905 66.6459 77.2681 77.218C83.0017 82.8493 87.996 90.7596 91.3576 100.635C94.7085 110.462 96.4357 121.56 99.6412 131.521C101.616 137.66 103.905 142.371 107.398 146.113C110.967 149.917 114.937 152.371 118.718 155.412C119.69 156.191 120.451 153.702 119.47 152.906Z" fill="#D1D1D1"/>
<path d="M100.546 144.841C81.4779 139.221 61.1869 138.135 43.5579 122.214C38.4418 117.598 33.7681 111.724 29.7413 104.553C28.9947 103.214 27.8823 105.268 28.629 106.607C43.1821 132.454 64.3814 138.758 83.8833 143.475C89.3304 144.797 94.7838 146.004 100.21 147.601C101.247 147.929 101.592 145.151 100.546 144.841Z" fill="#D1D1D1"/>
<path d="M91.0369 126.703C79.0084 100.994 59.7352 87.3053 41.3026 84.2985C40.2441 84.1181 40.331 86.9735 41.3799 87.138C59.1567 90.0339 78.0369 103.329 89.6397 128.13C90.3039 129.581 91.7011 128.153 91.0369 126.703Z" fill="#D1D1D1"/>
<path d="M74.7299 120.15C67.0546 118.1 59.8427 112.14 53.3474 104.72C52.4511 103.694 51.6977 106.206 52.594 107.232C59.195 114.761 66.5784 120.846 74.3851 122.924C75.4292 123.203 75.7926 120.427 74.7299 120.15Z" fill="#D1D1D1"/>
<path d="M94.3766 156.555C86.1932 160.544 77.7642 163.76 69.1369 163.125C59.8995 162.426 51.3423 156.797 43.1294 149.375C37.4016 144.202 31.5627 138.043 28.0878 128.302C27.52 126.697 26.1187 128.162 26.6864 129.767C29.7048 138.209 34.4242 144.155 39.3203 149.027C43.8789 153.536 48.6604 157.633 53.5997 160.656C61.9567 165.805 70.6961 167.118 79.3562 165.175C84.63 163.975 89.7847 161.837 94.8736 159.346C95.8891 158.831 95.3929 156.073 94.3766 156.555Z" fill="#D1D1D1"/>
<path d="M91.6985 167.96C85.8372 179.33 78.0742 187.326 69.2626 189.861C59.2407 192.722 49.0059 188.443 40.723 177.662C35.7256 171.142 31.4471 163.124 26.9034 155.698C26.1184 154.421 24.9924 156.466 25.7872 157.759C34.2369 171.573 42.2497 187.251 54.0114 191.812C63.0434 195.313 72.4483 193.557 80.5848 186.541C85.2945 182.48 89.4424 176.728 92.9348 169.972C93.6286 168.589 92.4021 166.592 91.6985 167.96Z" fill="#D1D1D1"/>
<path d="M65.5024 175.91C59.6416 176.024 53.7227 173.662 49.0076 167.072C48.1713 165.897 47.0581 167.952 47.8944 169.128C52.9601 176.227 59.2526 178.918 65.571 178.775C66.6461 178.761 66.5678 175.88 65.5024 175.91Z" fill="#D1D1D1"/>
<path d="M80.4088 151.833C73.2483 151.465 66.1811 149.016 59.2104 145.98C58.1671 145.522 57.8211 148.307 58.8645 148.765C65.968 151.862 73.1859 154.339 80.4775 154.704C81.5567 154.756 81.479 151.901 80.4088 151.833Z" fill="#D1D1D1"/>
<path d="M43.9153 137.035C40.2379 134.041 36.6084 131.093 33.8537 125.718C33.136 124.334 32.0272 126.382 32.7449 127.765C35.5979 133.331 39.3808 136.436 43.1822 139.54C44.135 140.32 44.8965 137.831 43.9153 137.035Z" fill="#D1D1D1"/>
<path d="M41.7482 104.087C38.2977 101.499 35.018 98.3239 31.5586 95.7522C30.5769 95.0195 29.8235 97.5306 30.8052 98.2633C34.2557 100.851 37.5354 104.026 40.9948 106.598C41.9854 107.314 42.7397 104.836 41.7482 104.087Z" fill="#D1D1D1"/>
<path d="M107.398 116.011C105.392 102.523 103.924 88.279 98.8189 76.893C93.446 64.9179 85.543 56.1251 77.1616 52.3437C72.2873 50.1415 67.2423 49.5403 62.2759 50.1138C61.2177 50.24 61.2948 53.0756 62.353 52.9494C73.5762 51.6534 84.2018 57.1459 92.8914 70.2057C96.8332 76.126 99.8493 83.2814 101.744 91.6611C103.576 99.7846 104.564 108.383 105.826 116.78C106.099 118.579 107.66 117.793 107.398 116.011Z" fill="#D1D1D1"/>
<path d="M107.745 77.5654C105.547 70.9159 103.355 64.1536 100.408 58.3457C97.4023 52.4107 93.643 48.1704 89.3293 45.7639C88.3192 45.1966 87.9759 47.958 88.986 48.5253C93.1679 50.8711 96.7141 55.1335 99.5777 60.9598C102.283 66.4365 104.297 72.8175 106.353 79.0203C106.889 80.6308 108.273 79.1922 107.745 77.5654Z" fill="#D1D1D1"/>
</svg>
